# xmcd CD database file
#
# Track frame offsets:
#	150
#	13675
#	26677
#	40182
#	53920
#	66397
#	76945
#	91500
#	109100
#	123695
#	136885
#	155825
#	168517
#	192962
#	208875
#	226757
#	237472
#	265532
#	278120
#	297477
#	315560
#
# Disc length: 4394 seconds
#
# Revision: 0
# Processed by: cddbd v1.5.1PL0 Copyright (c) Steve Scherf et al.
# Submitted via: CDex 1.51
#
DISCID=2b112815
DTITLE=Charlie Parker - bird sinbols and bird is free
DYEAR=1989
DGENRE=Jazz
TTITLE0=Moose the mooche
TTITLE1=Yardbird suite
TTITLE2=Ornithology
TTITLE3=A Night in tunisia
TTITLE4=Bird's nest
TTITLE5=Cool blues
TTITLE6=Bird of paradise
TTITLE7=Embraceable you
TTITLE8=My old flame
TTITLE9=Scrapple from the apple
TTITLE10=Out of nowhere
TTITLE11=Don't blame me
TTITLE12=Rocker
TTITLE13=Sly mongoose
TTITLE14=Moose the mooche
TTITLE15=Star eyes
TTITLE16=This time the dream's on me
TTITLE17=Cool blues
TTITLE18=My little suede shoes
TTITLE19=Lester leaps in
TTITLE20=Laura
EXTD=YEAR: 1989
EXTT0=
EXTT1=
EXTT2=
EXTT3=
EXTT4=
EXTT5=
EXTT6=
EXTT7=
EXTT8=
EXTT9=
EXTT10=
EXTT11=
EXTT12=
EXTT13=
EXTT14=
EXTT15=
EXTT16=
EXTT17=
EXTT18=
EXTT19=
EXTT20=
PLAYORDER=
